
<svg width="24" height="24" viewBox="0 0 24 24" fill="none" xmlns="http://www.w3.org/2000/svg">
<g clip-path="url(#clip0_1_79)">
<path fill-rule="evenodd" clip-rule="evenodd" d="M17.0306 13.7194C17.1715 13.8601 17.2506 14.0509 17.2506 14.25C17.2506 14.4491 17.1715 14.6399 17.0306 14.7806L14.7806 17.0306C14.4876 17.3237 14.0124 17.3237 13.7194 17.0306C13.4263 16.7376 13.4263 16.2624 13.7194 15.9694L15.4397 14.25L13.7194 12.5306C13.4263 12.2376 13.4263 11.7624 13.7194 11.4694C14.0124 11.1763 14.4876 11.1763 14.7806 11.4694L17.0306 13.7194ZM10.2806 11.4694C10.1399 11.3285 9.94906 11.2494 9.75 11.2494C9.55094 11.2494 9.36005 11.3285 9.21937 11.4694L6.96938 13.7194C6.82854 13.8601 6.74941 14.0509 6.74941 14.25C6.74941 14.4491 6.82854 14.6399 6.96938 14.7806L9.21937 17.0306C9.51243 17.3237 9.98757 17.3237 10.2806 17.0306C10.5737 16.7376 10.5737 16.2624 10.2806 15.9694L8.56031 14.25L10.2806 12.5306C10.4215 12.3899 10.5006 12.1991 10.5006 12C10.5006 11.8009 10.4215 11.6101 10.2806 11.4694ZM20.25 8.25V20.25C20.25 21.0784 19.5784 21.75 18.75 21.75H5.25C4.42157 21.75 3.75 21.0784 3.75 20.25V3.75C3.75 2.92157 4.42157 2.25 5.25 2.25H14.25C14.449 2.24984 14.6399 2.32876 14.7806 2.46937L20.0306 7.71938C20.1712 7.86015 20.2502 8.05103 20.25 8.25ZM15 7.5H17.6897L15 4.81031V7.5ZM18.75 20.25V9H14.25C13.8358 9 13.5 8.66421 13.5 8.25V3.75H5.25V20.25H18.75Z" fill="#1A0D1C"/>
</g>
<defs>
<clipPath id="clip0_1_79">
<rect width="24" height="24" fill="white"/>
</clipPath>
</defs>
</svg>
