<svg width="32" height="32" viewBox="0 0 32 32" fill="none" xmlns="http://www.w3.org/2000/svg">
<g opacity="0.4" clip-path="url(#clip0_908_9263)">
<circle cx="16" cy="16" r="15.5" stroke="white"/>
<path d="M17.9776 13.1039L11.3943 19.6872C11.263 19.8185 11.1893 19.9965 11.1893 20.1822C11.1893 20.3678 11.263 20.5459 11.3943 20.6772C11.5256 20.8084 11.7036 20.8822 11.8893 20.8822C12.0749 20.8822 12.253 20.8084 12.3843 20.6772L18.9676 14.0938L18.9672 18.7679L18.9672 18.768C18.9672 18.9537 19.041 19.1318 19.1723 19.2631C19.3036 19.3945 19.4817 19.4682 19.6675 19.4682C19.8532 19.4682 20.0313 19.3945 20.1626 19.2631C20.294 19.1318 20.3677 18.9537 20.3677 18.768L20.3677 12.4041V12.404H20.1677L17.9776 13.1039ZM17.9776 13.1039L13.3035 13.1043H13.3035C13.1178 13.1043 12.9397 13.0305 12.8083 12.8992C12.677 12.7678 12.6032 12.5897 12.6032 12.404C12.6032 12.2183 12.677 12.0402 12.8083 11.9088C12.9397 11.7775 13.1178 11.7037 13.3035 11.7037L19.6673 11.7037H19.6675L17.9776 13.1039Z" fill="white" stroke="white" stroke-width="0.4"/>
</g>
<defs>
<clipPath id="clip0_908_9263">
<rect width="32" height="32" fill="white"/>
</clipPath>
</defs>
</svg>
