<svg width="24" height="24" viewBox="0 0 24 24" fill="none" xmlns="http://www.w3.org/2000/svg">
<g clip-path="url(#clip0_1_16)">
<path fill-rule="evenodd" clip-rule="evenodd" d="M11.25 4.5V19.5C11.25 20.3284 10.5784 21 9.75 21H6C5.17157 21 4.5 20.3284 4.5 19.5V4.5C4.5 3.67157 5.17157 3 6 3H9.75C10.5784 3 11.25 3.67157 11.25 4.5ZM18 3H14.25C13.4216 3 12.75 3.67157 12.75 4.5V19.5C12.75 20.3284 13.4216 21 14.25 21H18C18.8284 21 19.5 20.3284 19.5 19.5V4.5C19.5 3.67157 18.8284 3 18 3Z" fill="#1A0D1C"/>
</g>
<defs>
<clipPath id="clip0_1_16">
<rect width="24" height="24" fill="white"/>
</clipPath>
</defs>
</svg>
