<svg preserveAspectRatio="xMidYMid meet" data-bbox="0 0 130 130" xmlns="http://www.w3.org/2000/svg" viewBox="0 0 130 130" height="130" width="130" data-type="color" role="presentation" aria-hidden="true" aria-label=""><defs><style>#comp-lte8dpvy3 svg [data-color="1"] {fill: #CFFF28;}</style></defs>
    <g>
        <path fill="#CFFF28" d="m65 0 3.046 52.941c.096 1.67 2.078 2.492 3.327 1.379l39.589-35.282L75.68 58.627c-1.113 1.249-.292 3.231 1.379 3.327L130 65l-52.941 3.046c-1.67.096-2.492 2.078-1.379 3.327l35.282 39.589L71.373 75.68c-1.249-1.113-3.231-.292-3.327 1.379L65 130l-3.046-52.941c-.096-1.67-2.078-2.492-3.327-1.379l-39.589 35.282L54.32 71.373c1.113-1.249.292-3.231-1.379-3.327L0 65l52.941-3.046c1.67-.096 2.492-2.078 1.379-3.327L19.038 19.038 58.627 54.32c1.249 1.113 3.231.292 3.327-1.379L65 0Z" data-color="1"></path>
    </g>
</svg>