<svg width="24" height="24" viewBox="0 0 24 24" fill="none" xmlns="http://www.w3.org/2000/svg">
<g clip-path="url(#clip0_1_33)">
<path fill-rule="evenodd" clip-rule="evenodd" d="M22.95 14.1C22.6186 14.3485 22.1485 14.2814 21.9 13.95C20.9833 12.7178 19.5358 11.994 18 12C17.6985 12 17.4263 11.8194 17.3091 11.5416C17.2304 11.3551 17.2304 11.1449 17.3091 10.9584C17.4263 10.6806 17.6985 10.5 18 10.5C19.1692 10.4999 20.1435 9.60425 20.2418 8.43916C20.3401 7.27406 19.5297 6.22784 18.377 6.03184C17.2243 5.83584 16.1136 6.55539 15.8212 7.6875C15.7177 8.08877 15.3085 8.33012 14.9072 8.22656C14.5059 8.12301 14.2646 7.71377 14.3681 7.3125C14.7687 5.76266 16.1088 4.63794 17.7047 4.51237C19.3005 4.38679 20.8001 5.28805 21.4381 6.75618C22.0761 8.2243 21.7119 9.93555 20.5312 11.0166C21.5511 11.4581 22.4376 12.1588 23.1028 13.0491C23.2222 13.2086 23.2731 13.4091 23.2444 13.6062C23.2158 13.8034 23.1098 13.9811 22.95 14.1ZM17.8988 19.875C18.0465 20.1075 18.055 20.4023 17.9207 20.6429C17.7865 20.8834 17.5311 21.031 17.2557 21.0273C16.9802 21.0236 16.7289 20.8691 16.6012 20.625C15.64 18.9973 13.8903 17.9986 12 17.9986C10.1097 17.9986 8.36001 18.9973 7.39875 20.625C7.27105 20.8691 7.0198 21.0236 6.74434 21.0273C6.46887 21.031 6.21353 20.8834 6.07928 20.6429C5.94502 20.4023 5.95346 20.1075 6.10125 19.875C6.82837 18.6257 7.93706 17.6425 9.26437 17.07C7.73297 15.8975 7.11905 13.8795 7.73805 12.0528C8.35704 10.2261 10.0713 8.997 12 8.997C13.9287 8.997 15.643 10.2261 16.262 12.0528C16.8809 13.8795 16.267 15.8975 14.7356 17.07C16.0629 17.6425 17.1716 18.6257 17.8988 19.875ZM12 16.5C13.6569 16.5 15 15.1569 15 13.5C15 11.8431 13.6569 10.5 12 10.5C10.3431 10.5 9 11.8431 9 13.5C9 15.1569 10.3431 16.5 12 16.5ZM6.75 11.25C6.75 10.8358 6.41421 10.5 6 10.5C4.83076 10.4999 3.85646 9.60425 3.75816 8.43916C3.65987 7.27406 4.47034 6.22784 5.62303 6.03184C6.77572 5.83584 7.88644 6.55539 8.17875 7.6875C8.2823 8.08877 8.69154 8.33012 9.09281 8.22656C9.49408 8.12301 9.73543 7.71377 9.63188 7.3125C9.23134 5.76266 7.89116 4.63794 6.29533 4.51237C4.6995 4.38679 3.19991 5.28805 2.56189 6.75618C1.92388 8.2243 2.28813 9.93555 3.46875 11.0166C2.44995 11.4585 1.56442 12.1592 0.9 13.0491C0.651213 13.3804 0.71816 13.8507 1.04953 14.0995C1.3809 14.3483 1.85121 14.2814 2.1 13.95C3.01674 12.7178 4.46416 11.994 6 12C6.41421 12 6.75 11.6642 6.75 11.25Z" fill="#1A0D1C"/>
</g>
<defs>
<clipPath id="clip0_1_33">
<rect width="24" height="24" fill="white"/>
</clipPath>
</defs>
</svg>
