<svg width="24" height="24" viewBox="0 0 24 24" fill="none" xmlns="http://www.w3.org/2000/svg">
<g clip-path="url(#clip0_1_62)">
<path fill-rule="evenodd" clip-rule="evenodd" d="M19.5 3.75H4.5C3.25736 3.75 2.25 4.75736 2.25 6V16.5C2.25 17.7426 3.25736 18.75 4.5 18.75H19.5C20.7426 18.75 21.75 17.7426 21.75 16.5V6C21.75 4.75736 20.7426 3.75 19.5 3.75ZM20.25 16.5C20.25 16.9142 19.9142 17.25 19.5 17.25H4.5C4.08579 17.25 3.75 16.9142 3.75 16.5V6C3.75 5.58579 4.08579 5.25 4.5 5.25H19.5C19.9142 5.25 20.25 5.58579 20.25 6V16.5ZM15.75 21C15.75 21.4142 15.4142 21.75 15 21.75H9C8.58579 21.75 8.25 21.4142 8.25 21C8.25 20.5858 8.58579 20.25 9 20.25H15C15.4142 20.25 15.75 20.5858 15.75 21ZM15.4163 10.6256L10.9163 7.62563C10.6861 7.47204 10.39 7.45769 10.146 7.58831C9.90204 7.71892 9.74982 7.97327 9.75 8.25V14.25C9.74982 14.5267 9.90204 14.7811 10.146 14.9117C10.39 15.0423 10.6861 15.028 10.9163 14.8744L15.4163 11.8744C15.6252 11.7353 15.7507 11.501 15.7507 11.25C15.7507 10.999 15.6252 10.7647 15.4163 10.6256ZM11.25 12.8484V9.65625L13.6481 11.25L11.25 12.8484Z" fill="#1A0D1C"/>
</g>
<defs>
<clipPath id="clip0_1_62">
<rect width="24" height="24" fill="white"/>
</clipPath>
</defs>
</svg>
